<?xml version="1.0" encoding="UTF-8"?>
<svg id="Capa_1" data-name="Capa 1" xmlns="http://www.w3.org/2000/svg" xmlns:xlink="http://www.w3.org/1999/xlink" viewBox="0 0 595.28 841.89">
  <defs>
    <style>
      .cls-1 {
        fill: url(#Degradado_sin_nombre_235);
      }

      .cls-2 {
        fill: #1d1d1b;
      }
    </style>
    <linearGradient id="Degradado_sin_nombre_235" data-name="Degradado sin nombre 235" x1="297.64" y1="273.84" x2="297.64" y2="591.84" gradientUnits="userSpaceOnUse">
      <stop offset="0" stop-color="#97bfa0"/>
      <stop offset=".16" stop-color="#9bc1a2"/>
      <stop offset=".34" stop-color="#a9c7ab"/>
      <stop offset=".54" stop-color="#c1d2b9"/>
      <stop offset=".75" stop-color="#e1e1cd"/>
      <stop offset=".89" stop-color="#feefdf"/>
    </linearGradient>
  </defs>
  <path class="cls-1" d="m456.64,345.32v175.03c0,7.4-1.12,14.54-3.21,21.26-9.06,29.1-36.2,50.23-68.27,50.23h-175.04c-27.83,0-51.94-15.9-63.74-39.12-4.95-9.72-7.74-20.72-7.74-32.37v-175.03c0-39.48,32-71.48,71.48-71.48h175.04c39.47,0,71.48,32,71.48,71.48Z"/>
  <g>
    <path class="cls-2" d="m370.46,385.64c-.74,0-1.49.09-2.22.18-12.24,1.63-25.7,2.36-36.84,8.16-7.51,3.9-17.69,11.3-13.76,21.19,1.18,2.97,3.56,5.29,6.03,7.31,12.28,10.03,27.04,12.52,42.11,15.59,1.45.29,2.94-.16,3.99-1.2,5.64-5.64-12.17-19.45-16.27-22.5-2.05-1.53-5.27-4.31-3.34-7.19.63-.94,1.69-1.5,2.71-2.01,7.1-3.52,14.38-6.44,21.07-10.75.86-.55,1.78-1.22,2.01-2.21.17-.75-.09-1.53-.35-2.25-.49-1.33-1.06-2.73-2.22-3.54-.85-.59-1.87-.78-2.92-.78Z"/>
    <path class="cls-2" d="m402.19,342.13c-.83-.19-1.69-.3-2.5-.35-2.52-.15-5.03.25-7.55.46-20.11,1.65-37.44-9.92-52.18-22.26-1.33-1.11-2.69-2.26-4.33-2.81-11.58-3.93-5.91,19.07-3.22,23.25,4.16,6.48,10.8,11.04,17.91,13.99,5.84,2.42,57.01,16.54,57.01,2.26,0,0,0-9.3,0-9.31,0-3.09-2.45-4.6-5.14-5.22Z"/>
    <path class="cls-2" d="m235.37,495.92c2.92-11.57,10.52-20.79,20.59-28.08,10.92-7.91,23.7-13.5,37.12-14.84,13.14-1.31,26.67,1.55,38.16,8.07,11.48,6.52,20.87,16.68,26.47,28.65,4.1,8.76,3.07,17.87-7.48,20.38-8.08,1.92-17.12.42-25.37.48-9.21.06-18.41.39-27.61.61-18.29.44-36.73.49-54.8-2.79-2.46-.45-5.73-1.26-7.35-3.34-2.22-2.85-.51-6.02.27-9.13Z"/>
    <path class="cls-2" d="m227.8,385.64c.74,0,1.49.09,2.22.18,12.24,1.63,25.7,2.36,36.84,8.16,7.51,3.9,17.69,11.3,13.76,21.19-1.18,2.97-3.56,5.29-6.03,7.31-12.28,10.03-27.04,12.52-42.11,15.59-1.45.29-2.94-.16-3.99-1.2-5.64-5.64,12.17-19.45,16.27-22.5,2.05-1.53,5.27-4.31,3.34-7.19-.63-.94-1.69-1.5-2.71-2.01-7.1-3.52-14.38-6.44-21.07-10.75-.86-.55-1.78-1.22-2.01-2.21-.17-.75.09-1.53.35-2.25.49-1.33,1.06-2.73,2.22-3.54.85-.59,1.87-.78,2.92-.78Z"/>
    <path class="cls-2" d="m196.07,342.13c.83-.19,1.69-.3,2.5-.35,2.52-.15,5.03.25,7.55.46,20.11,1.65,37.44-9.92,52.18-22.26,1.33-1.11,2.69-2.26,4.33-2.81,11.58-3.93,5.91,19.07,3.22,23.25-4.16,6.48-10.8,11.04-17.91,13.99-5.84,2.42-57.01,16.54-57.01,2.26,0,0,0-9.3,0-9.31,0-3.09,2.45-4.6,5.14-5.22Z"/>
  </g>
</svg>