<?xml version="1.0" encoding="UTF-8"?>
<svg id="Capa_1" data-name="Capa 1" xmlns="http://www.w3.org/2000/svg" xmlns:xlink="http://www.w3.org/1999/xlink" viewBox="0 0 595.28 841.89">
  <defs>
    <style>
      .cls-1 {
        fill: url(#Degradado_sin_nombre_460);
      }

      .cls-2 {
        fill: #1d1d1b;
      }
    </style>
    <linearGradient id="Degradado_sin_nombre_460" data-name="Degradado sin nombre 460" x1="280.01" y1="284.53" x2="280.01" y2="602.53" gradientUnits="userSpaceOnUse">
      <stop offset="0" stop-color="#fdcd68"/>
      <stop offset=".09" stop-color="#fccf7a"/>
      <stop offset=".25" stop-color="#fcd398"/>
      <stop offset=".35" stop-color="#fbd4a3"/>
      <stop offset=".58" stop-color="#fbd8ba"/>
      <stop offset=".8" stop-color="#fbdac8"/>
      <stop offset=".99" stop-color="#fbdbcd"/>
    </linearGradient>
  </defs>
  <path class="cls-1" d="m439.01,356.01v175.03c0,7.4-1.12,14.54-3.21,21.26-9.06,29.1-36.2,50.23-68.27,50.23h-175.04c-27.83,0-51.94-15.9-63.74-39.12-4.95-9.72-7.74-20.72-7.74-32.37v-175.03c0-39.48,32-71.48,71.48-71.48h175.04c39.47,0,71.48,32,71.48,71.48Z"/>
  <path class="cls-2" d="m257.12,409.12c-.01,1.75-.16,3.51-.47,5.25-6.04-8.16-12.05-17.09-21.27-21.96-5.3-2.8-11.27-3.81-17.21-3.81-10.67,0-19.54,5.58-26.84,12.95-3.06,3.09-5.93,6.33-8.48,9.86-.86,1.19-1.91,2.34-3.29,2.84-.21.08-.4-7.81-.33-8.53.28-2.78.99-5.5,1.88-8.14,1.6-4.75,4.19-9.14,7.53-12.87,6.92-7.72,16.85-12.37,27.19-12.95.76-.04,1.53-.06,2.3-.06,10.36,0,20.54,4.04,27.93,11.33,6.88,6.79,11.11,16.4,11.05,26.09Z"/>
  <path class="cls-2" d="m395.78,492.59c0,23.5-47.72,37.65-106.6,37.65s-106.6-14.14-106.6-37.65c0-.06,0-.12,0-.18.08-7.93,10.29-11.56,15.75-5.81,16.42,17.31,50.04,22.86,90.85,22.86s76.01-9.61,93.17-22.94c5.27-4.1,13.37-.76,13.43,5.91,0,.05,0,.1,0,.15Z"/>
  <path class="cls-2" d="m315.02,409.12c.01,1.75.16,3.51.47,5.25,6.04-8.16,12.05-17.09,21.27-21.96,5.3-2.8,11.27-3.81,17.21-3.81,10.67,0,19.54,5.58,26.84,12.95,3.06,3.09,5.93,6.33,8.48,9.86.86,1.19,1.91,2.34,3.29,2.84.21.08.4-7.81.33-8.53-.28-2.78-.99-5.5-1.88-8.14-1.6-4.75-4.19-9.14-7.53-12.87-6.92-7.72-16.85-12.37-27.19-12.95-.76-.04-1.53-.06-2.3-.06-10.36,0-20.54,4.04-27.93,11.33-6.88,6.79-11.11,16.4-11.05,26.09Z"/>
</svg>