<?xml version="1.0" encoding="UTF-8"?>
<svg id="Capa_1" data-name="Capa 1" xmlns="http://www.w3.org/2000/svg" xmlns:xlink="http://www.w3.org/1999/xlink" viewBox="0 0 595.28 841.89">
  <defs>
    <style>
      .cls-1 {
        fill: url(#Degradado_sin_nombre_347);
      }

      .cls-2 {
        fill: #1d1d1b;
      }
    </style>
    <linearGradient id="Degradado_sin_nombre_347" data-name="Degradado sin nombre 347" x1="297.64" y1="275.52" x2="297.64" y2="593.52" gradientUnits="userSpaceOnUse">
      <stop offset="0" stop-color="#e94546"/>
      <stop offset=".02" stop-color="#e94a4b"/>
      <stop offset=".2" stop-color="#ef7c77"/>
      <stop offset=".37" stop-color="#f4a59d"/>
      <stop offset=".54" stop-color="#f8c5b9"/>
      <stop offset=".71" stop-color="#fbdcce"/>
      <stop offset=".86" stop-color="#fdeada"/>
      <stop offset="1" stop-color="#feefdf"/>
    </linearGradient>
  </defs>
  <path class="cls-1" d="m456.64,347v175.03c0,7.4-1.12,14.54-3.21,21.26-9.06,29.1-36.2,50.23-68.27,50.23h-175.04c-27.83,0-51.94-15.9-63.74-39.12-4.95-9.72-7.74-20.72-7.74-32.37v-175.03c0-39.48,32-71.48,71.48-71.48h175.04c39.47,0,71.48,32,71.48,71.48Z"/>
  <g>
    <path class="cls-2" d="m202.24,350.02c5.9-1.9,12.63-1.48,18.6.47,8.23,2.68,15.37,7.9,22.33,13.05,3.64,2.69,7.3,5.41,10.37,8.74,2.89,3.13,5.02,6.5,6.2,10.59.06.22.12.47,0,.66-.1.16-.29.23-.47.28-9.22,2.79-15.88-6.93-22.98-11.08-5.81-3.39-12.55-4.86-19.24-5.57s-13.44-.73-20.13-1.48c-1.57-.18-3.22-.42-4.49-1.38-4.23-3.18.79-9.03,3.56-11.1,1.91-1.42,4.02-2.47,6.25-3.19Z"/>
    <path class="cls-2" d="m236.34,386.65c-2.6,1.82-4.69,4.49-6.01,7.4-2.2,4.85-2.58,10.31-2.55,15.64.03,6.48,2.81,12.61,7.55,17.05,2.39,2.24,5.53,3.85,8.8,3.78,3.24-.07,7.17-1.91,8.91-4.72,1.61-2.6,1.45-6.18,1.9-9.11.57-3.66.93-7.36.91-11.06-.03-6.84-1.35-14.51-6.77-19.24-3.74-3.26-8.92-2.42-12.74.26Z"/>
    <path class="cls-2" d="m393.04,355.17c-5.9-1.9-12.63-1.48-18.6.47-8.23,2.68-15.37,7.9-22.33,13.05-3.64,2.69-7.3,5.41-10.37,8.74-2.89,3.13-5.02,6.5-6.2,10.59-.06.22-.12.47,0,.66.1.16.29.23.47.28,9.22,2.79,15.88-6.93,22.98-11.08,5.81-3.39,12.55-4.86,19.24-5.57s13.44-.73,20.13-1.48c1.57-.18,3.22-.42,4.49-1.38,4.23-3.18-.79-9.03-3.56-11.1-1.91-1.42-4.02-2.47-6.25-3.19Z"/>
    <path class="cls-2" d="m358.93,391.8c2.6,1.82,4.69,4.49,6.01,7.4,2.2,4.85,2.58,10.31,2.55,15.64-.03,6.48-2.81,12.61-7.55,17.05-2.39,2.24-5.53,3.85-8.8,3.78-3.24-.07-7.17-1.91-8.91-4.72-1.61-2.6-1.45-6.18-1.9-9.11-.57-3.66-.93-7.36-.91-11.06.03-6.84,1.35-14.51,6.77-19.24,3.74-3.26,8.92-2.42,12.74.26Z"/>
    <path class="cls-2" d="m225.57,514.2c-.29-.67-.34-1.47-.16-2.31,2.03-9.2,5.34-18.37,11.2-25.84,5.59-7.13,12.85-12.73,20.19-17.95,6.89-4.9,15.77-7.01,23.98-8.46,13.97-2.47,27.54-1.75,41.04,2.53,10.96,3.48,21.62,8.72,30.1,16.6,8.6,8,14.23,19.14,17.76,30.21.18.56.36,1.15.27,1.74-.63,4.33-10.6,5.51-13.83,5.59-5.6.15-11.19-1.2-16.4-3.16-9.63-3.62-18.53-9.13-28.54-11.75-9.08-2.37-18.67-2.15-27.92-.61s-18.24,4.36-27.18,7.18c-7.88,2.48-15.75,4.96-23.63,7.43-1.4.44-2.87.89-4.32.66-1.29-.21-2.16-.9-2.57-1.85Z"/>
  </g>
</svg>