<?xml version="1.0" encoding="UTF-8"?>
<svg id="Capa_1" data-name="Capa 1" xmlns="http://www.w3.org/2000/svg" xmlns:xlink="http://www.w3.org/1999/xlink" viewBox="0 0 595.28 841.89">
  <defs>
    <style>
      .cls-1 {
        fill: url(#Degradado_sin_nombre_13);
      }

      .cls-2 {
        fill: #eb5758;
      }

      .cls-3 {
        fill: #010101;
      }
    </style>
    <linearGradient id="Degradado_sin_nombre_13" data-name="Degradado sin nombre 13" x1="138.64" y1="420.94" x2="456.64" y2="420.94" gradientUnits="userSpaceOnUse">
      <stop offset=".1" stop-color="#f9c9ca"/>
      <stop offset=".89" stop-color="#f6b7c0"/>
    </linearGradient>
  </defs>
  <path class="cls-1" d="m456.64,333.42v175.03c0,7.4-1.12,14.54-3.21,21.26-9.06,29.1-36.2,50.23-68.27,50.23h-175.04c-27.83,0-51.94-15.9-63.74-39.12-4.95-9.72-7.74-20.72-7.74-32.37v-175.03c0-39.48,32-71.48,71.48-71.48h175.04c39.47,0,71.48,32,71.48,71.48Z"/>
  <rect class="cls-3" x="217.35" y="338.21" width="33.41" height="69.67" rx="16.71" ry="16.71"/>
  <rect class="cls-3" x="356.65" y="338.21" width="33.41" height="69.67" rx="16.71" ry="16.71"/>
  <path class="cls-3" d="m228.58,464.89h157.18c0,38.7-31.42,70.12-70.12,70.12h-16.94c-38.7,0-70.12-31.42-70.12-70.12h0Z"/>
  <path class="cls-2" d="m456.64,358.15v150.31c0,7.4-1.12,14.54-3.21,21.26-33.16-14.04-56.43-46.87-56.43-85.15s24.78-73.2,59.64-86.42Z"/>
  <path class="cls-2" d="m217.35,450.92c0,43.65-30.27,80.24-70.97,89.9-4.95-9.72-7.74-20.72-7.74-32.37v-148.94c44.54,6.62,78.71,45.03,78.71,91.41Z"/>
</svg>