<?xml version="1.0" encoding="UTF-8"?>
<svg id="Capa_1" data-name="Capa 1" xmlns="http://www.w3.org/2000/svg" xmlns:xlink="http://www.w3.org/1999/xlink" viewBox="0 0 595.28 841.89">
  <defs>
    <style>
      .cls-1 {
        fill: #fff;
      }

      .cls-2 {
        fill: url(#Degradado_sin_nombre_184);
      }

      .cls-3 {
        fill: #1d1d1b;
      }
    </style>
    <linearGradient id="Degradado_sin_nombre_184" data-name="Degradado sin nombre 184" x1="297.64" y1="261.94" x2="297.64" y2="579.94" gradientUnits="userSpaceOnUse">
      <stop offset="0" stop-color="#92c3d5"/>
      <stop offset=".16" stop-color="#96c2d3"/>
      <stop offset=".35" stop-color="#a4c0d1"/>
      <stop offset=".55" stop-color="#bcbdcc"/>
      <stop offset=".76" stop-color="#dcbac5"/>
      <stop offset=".89" stop-color="#f6b7c0"/>
    </linearGradient>
  </defs>
  <path class="cls-2" d="m456.64,333.42v175.03c0,7.4-1.12,14.54-3.21,21.26-9.06,29.1-36.2,50.23-68.27,50.23h-175.04c-27.83,0-51.94-15.9-63.74-39.12-4.95-9.72-7.74-20.72-7.74-32.37v-175.03c0-39.48,32-71.48,71.48-71.48h175.04c39.47,0,71.48,32,71.48,71.48Z"/>
  <g>
    <path class="cls-3" d="m221.65,397.68c1.73-1.23,4.05-2.14,6.48-2.64,18.93-3.93,31.13-5.78,44.24-21.12,2.2-2.57,15.34-9.54,12.57-1.66-8.14,23.19-27.53,46.41-55.02,39.5-2.99-.75-5.96-1.91-8.22-4-4.5-4.16-3.37-7.71-.05-10.07Z"/>
    <path class="cls-3" d="m241.27,480.8c-1.14-7.28,4.56-16.5,8.55-21.36,12.79-15.54,32.73-24.94,52.86-24.92,20.13.02,40.04,9.47,52.8,25.04,4.47,5.46,9.33,13.48,8.42,20.89-2.35,18.98-51.82,3.62-63.98,4.57-10.14.79-19.83,4.49-29.9,5.95-7.52,1.09-22,1.31-27.08-5.96-.9-1.29-1.43-2.72-1.67-4.23Z"/>
    <path class="cls-3" d="m378.56,397.68c-1.73-1.23-4.05-2.14-6.48-2.64-18.93-3.93-31.13-5.78-44.24-21.12-2.2-2.57-15.34-9.54-12.57-1.66,8.14,23.19,27.53,46.41,55.02,39.5,2.99-.75,5.96-1.91,8.22-4,4.5-4.16,3.37-7.71.05-10.07Z"/>
  </g>
  <path class="cls-1" d="m205.03,445.01c1.06-4.02,2.4-7.96,3.83-11.86.95-2.61,1.92-5.21,2.89-7.81.68-1.83,3.62-6.56,3.28-8.4,1.46,7.66,4.91,14.86,7.4,22.24,2.25,6.67,4.95,17.05-1.81,22.07-2.89,2.15-6.79,2.74-10.29,1.89-2.15-.52-4.25-1.63-5.51-3.44-1.92-2.75-1.58-6.44-.94-9.73.33-1.67.72-3.32,1.15-4.96Z"/>
  <path class="cls-1" d="m393.93,439.1c-1.07-4.06-2.43-8.05-3.87-12-.96-2.64-1.95-5.27-2.93-7.9-.69-1.85-3.67-6.64-3.32-8.5-1.47,7.75-4.97,15.03-7.48,22.5-2.27,6.74-5,17.25,1.83,22.33,2.92,2.17,6.87,2.77,10.41,1.91,2.18-.53,4.3-1.65,5.58-3.48,1.94-2.78,1.6-6.52.95-9.84-.33-1.69-.72-3.36-1.16-5.02Z"/>
  <path class="cls-3" d="m266.28,343.91c-8.8,10.94-21.2,18.63-34.89,21.73-3.88.88-7.81,1.35-11.78,1.44-3.21.07-3.22,5.08,0,5,15.12-.35,29.81-6.03,41.42-15.69,3.22-2.68,6.16-5.68,8.78-8.94.85-1.05,1.03-2.51,0-3.54-.88-.88-2.68-1.06-3.54,0h0Z"/>
  <path class="cls-3" d="m322.94,351.23c14.67,9.96,30.37,20.24,48.72,20.7,5.01.13,10.07-.56,14.82-2.18,1.28-.44,2.12-1.72,1.75-3.08-.34-1.24-1.79-2.18-3.08-1.75-16.43,5.61-33.42-1.35-47.41-9.95-4.17-2.57-8.23-5.32-12.28-8.07-2.67-1.81-5.17,2.52-2.52,4.32h0Z"/>
</svg>